<?xml version="1.0" encoding="utf-8"?>
<!-- Generator: Adobe Illustrator 26.0.2, SVG Export Plug-In . SVG Version: 6.00 Build 0)  -->
<svg version="1.1" xmlns="http://www.w3.org/2000/svg" xmlns:xlink="http://www.w3.org/1999/xlink" x="0px" y="0px"
	 viewBox="0 0 140 40" enable-background="new 0 0 140 40" xml:space="preserve">
<g id="guides">
</g>
<g id="png">
</g>
<g id="dark">
</g>
<g id="light">
	<g>
		<path fill="#4A7DB2" d="M9.62,22.48c-0.96-0.84-1.83-1.8-2.16-3.09c-0.09-0.3-0.12-0.33-0.42-0.21c-2.07,1.08-3.45,2.7-3.78,5.05
			c-0.54,3.39,2.04,6.49,5.44,6.64c1.35,0.06,2.61-0.24,3.85-0.75c0.21-0.09,0.39-0.12,0.6-0.03c1.83,0.69,3.54,0.51,5.08-0.78
			c0.18-0.15,0.24-0.12,0.36,0.06c0.72,1.11,1.23,1.65,2.31,2.37c-0.51,0.36-1.08,0.6-1.68,0.81c-2.01,0.72-3.97,0.51-5.83-0.54
			c-0.3-0.18-0.51-0.18-0.81-0.06c-3.15,1.23-6.22,1.05-9.01-0.9C0.18,28.7-0.93,24.29,0.82,20.5c1.14-2.52,3.03-4.18,5.68-4.99
			c0.3-0.09,0.42-0.24,0.48-0.54c0.66-2.94,2.31-5.2,4.93-6.64c2.82-1.59,5.77-1.74,8.77-0.54c1.29,0.51,2.4,1.32,3.39,2.28
			c0.21,0.21,0.18,0.3-0.06,0.48c-0.9,0.69-1.83,1.35-2.61,2.19c-0.18,0.21-0.27,0.09-0.39-0.03c-1.26-1.32-2.82-2.07-4.63-2.28
			c-3.36-0.45-6.97,1.62-8.11,4.66c-0.69,1.89-0.42,3.75,0.39,5.56C8.93,21.25,9.26,21.85,9.62,22.48z"/>
		<path fill="#4A7DB2" d="M121.42,13.05c-0.63-0.12-1.23-0.12-1.86,0c-0.54,0.09-0.63,0.18-0.63,0.75c0,1.71,0,3.45,0,5.17
			c0,0.15,0.06,0.3-0.09,0.42c-0.18-0.15-0.36-0.33-0.57-0.45c-0.48-0.36-1.02-0.69-1.62-0.84c-2.19-0.51-4.3,0.6-5.17,2.79
			c-0.84,2.19-0.84,4.45-0.09,6.64c0.57,1.59,1.68,2.61,3.42,2.82c1.62,0.21,2.97-0.36,4.15-1.5c0.09-0.09,0.18-0.24,0.39-0.27
			c0,0.33,0,0.63,0,0.93c-0.03,0.36,0.15,0.54,0.51,0.6c0.51,0.09,1.02,0.09,1.53,0c0.51-0.06,0.6-0.18,0.6-0.69V13.74
			C122.03,13.26,121.91,13.11,121.42,13.05z M118.93,24.16c0,0.39-0.03,0.75,0,1.14c0.06,0.54-0.15,0.93-0.51,1.29
			c-0.36,0.33-0.66,0.72-1.11,0.93c-0.81,0.42-2.1,0.45-2.67-0.78c-0.75-1.68-0.81-3.39,0.03-5.05c0.6-1.17,1.8-1.41,2.91-0.66
			c0.15,0.09,0.27,0.21,0.39,0.3c0.69,0.54,1.17,1.17,0.99,2.13C118.9,23.68,118.93,23.92,118.93,24.16z"/>
		<path fill="#4A7DB2" d="M26.89,7.58c1.26,0.3,2.4,0.6,3.54,0.9c0.84,0.21,1.68,0.45,2.52,0.63c0.21,0.06,0.3,0.09,0.18,0.36
			c-0.81,1.92-1.59,3.85-2.4,5.77c0,0.03-0.06,0.06-0.12,0.15c-0.15-0.42-0.3-0.81-0.45-1.23c-0.06-0.18-0.15-0.27-0.36-0.21
			c-2.46,0.57-4.87,1.41-6.91,3.06c-3.63,2.94-4.45,7.63-2.01,11.69c1.26,2.1,3.03,3.6,5.41,4.39c0.03,0,0.09,0.03,0.12,0.06
			c0.03,0,0.03,0.03,0.09,0.09c-1.41-0.18-2.73-0.6-3.91-1.32c-2.82-1.71-4.33-4.3-4.81-7.48c-0.66-4.15,0.72-7.63,3.42-10.69
			c1.68-1.89,3.72-3.3,5.98-4.42c0.3-0.15,0.36-0.27,0.21-0.57C27.22,8.39,27.07,8.03,26.89,7.58z"/>
		<path fill="#4A7DB2" d="M66.87,22.36c0-1.71,0.27-3.33,1.08-4.87c1.08-2.07,2.82-3.18,5.11-3.51c1.65-0.24,3.24,0,4.72,0.81
			c0.57,0.3,0.87,0.75,0.84,1.41c0,0.42,0.03,0.87-0.03,1.29c-0.09,0.54-0.33,0.63-0.78,0.36c-0.18-0.12-0.36-0.24-0.54-0.36
			c-0.9-0.57-1.86-0.9-2.94-0.87c-1.26,0.03-2.22,0.57-2.91,1.59c-1.32,1.92-1.38,5.77-0.15,7.75c0.6,0.96,1.5,1.5,2.61,1.65
			c1.14,0.15,2.22-0.06,3.21-0.63c0.27-0.15,0.54-0.33,0.81-0.48c0.48-0.3,0.69-0.21,0.78,0.36c0.09,0.48,0.06,0.96,0.03,1.47
			c-0.06,0.81-0.66,1.14-1.26,1.38c-2.25,0.93-4.54,0.99-6.79,0c-1.59-0.69-2.55-1.95-3.15-3.54
			C67.02,24.92,66.87,23.65,66.87,22.36z"/>
		<path fill="#4A7DB2" d="M96.61,21.76c-0.33-1.41-1.11-2.49-2.4-3.15c-0.96-0.51-2.01-0.63-3.24-0.66c-0.15,0-0.48,0.03-0.81,0.06
			c-2.34,0.21-4.12,1.59-4.78,3.85c-0.51,1.77-0.51,3.54,0.09,5.29c0.45,1.35,1.35,2.31,2.73,2.82c1.11,0.42,2.28,0.48,3.45,0.39
			c2.4-0.15,4.39-1.71,4.93-3.94C96.97,24.89,96.97,23.32,96.61,21.76z M93.34,26.3c-0.45,1.14-1.38,1.71-2.67,1.62
			c-1.2-0.09-1.95-0.75-2.22-1.98c-0.24-1.17-0.27-2.31,0-3.45c0.27-1.17,1.14-1.95,2.28-2.01c1.41-0.06,2.28,0.54,2.67,1.8
			c0.18,0.63,0.24,1.26,0.24,1.89C93.67,24.92,93.61,25.64,93.34,26.3z"/>
		<path fill="#4A7DB2" d="M106.47,28.46c-0.6,0.57-1.11,1.02-1.74,1.38c-1.59,0.9-3.82,0.69-4.96-0.48
			c-0.69-0.72-1.02-1.59-1.08-2.55c-0.12-2.01-0.03-4.03-0.06-6.01c0-0.63,0-1.26,0-1.92c0-0.39,0.18-0.57,0.54-0.63
			c0.66-0.09,1.32-0.09,1.98,0c0.39,0.06,0.57,0.24,0.57,0.66c-0.03,1.95,0,3.91,0,5.86c0,0.51,0,1.02,0.15,1.53
			c0.36,1.38,1.77,1.86,2.91,0.99c0.03-0.03,0.03-0.03,0.06-0.06c0.9-0.6,1.35-1.38,1.26-2.55c-0.12-1.89-0.03-3.82-0.03-5.74
			c0-0.54,0.09-0.63,0.6-0.72c0.63-0.09,1.26-0.09,1.89,0c0.36,0.06,0.57,0.21,0.57,0.63c0,3.54,0,7.09,0,10.6
			c0,0.42-0.18,0.6-0.54,0.66c-0.51,0.06-1.02,0.09-1.53,0c-0.39-0.06-0.6-0.21-0.57-0.63C106.47,29.21,106.47,28.88,106.47,28.46z"
			/>
		<path fill="#4A7DB2" d="M41.67,19.78c0-1.68,0-3.39,0-5.08c0-0.42,0.15-0.6,0.57-0.63c0.09,0,0.18-0.03,0.27-0.03
			c1.17-0.09,1.29,0.03,1.29,1.17c0,2.94,0,5.89,0,8.83c0,0.66,0.03,1.32,0.24,1.95c0.42,1.32,1.29,2.13,2.64,2.4
			c1.11,0.21,2.19,0.18,3.18-0.42c1.2-0.72,1.65-1.89,1.71-3.18c0.06-1.65,0.03-3.27,0.03-4.93c0-1.71,0-3.45,0-5.17
			c0-0.51,0.06-0.57,0.57-0.66c0.39-0.06,0.75-0.03,1.14,0.03c0.27,0.06,0.42,0.18,0.42,0.48c0,3.42,0.03,6.85-0.03,10.24
			c-0.06,2.01-0.87,3.69-2.7,4.72c-1.29,0.72-2.73,0.9-4.21,0.75c-1.32-0.15-2.55-0.54-3.51-1.5c-1.17-1.17-1.56-2.64-1.59-4.24
			C41.67,22.99,41.67,21.4,41.67,19.78L41.67,19.78z"/>
		<path fill="#4A7DB2" d="M65.01,21.31c-0.3-1.08-0.87-1.98-1.86-2.58c-1.5-0.93-3.63-0.75-5.11,0.45c-0.36,0.3-0.69,0.6-1.11,0.96
			v-0.66c0-1.17-0.21-1.35-1.38-1.14c-0.27,0.03-0.42,0.15-0.42,0.45c0,0.39,0,0.81,0,1.23v13.94c0,0.51,0.09,0.63,0.6,0.63
			c0.3,0,0.57,0.03,0.84,0c0.48-0.03,0.6-0.15,0.6-0.63c0-1.44,0-2.88,0-4.3V28.7c0.42,0.36,0.75,0.66,1.11,0.93
			c0.36,0.24,0.75,0.48,1.2,0.57c1.95,0.48,4.51-0.18,5.44-3.06C65.58,25.22,65.58,23.26,65.01,21.31z M62.73,26.93
			c-0.75,1.8-2.52,2.22-4.09,1.02c-0.15-0.12-0.33-0.24-0.48-0.39c-0.75-0.6-1.14-1.32-0.99-2.31c0.06-0.3,0-0.66,0-0.96
			c0-0.66,0-1.29,0-1.95c0-0.15,0-0.3,0.12-0.42c0.48-0.54,0.96-1.11,1.59-1.5c0.45-0.27,0.9-0.48,1.44-0.51
			c1.11-0.06,1.98,0.45,2.4,1.53C63.45,23.23,63.48,25.1,62.73,26.93z"/>
		<path fill="#4A7DB2" d="M27.67,16.23c2.7-0.78,6.37,0.27,8.5,3.06c2.28,3,2.37,7.12,0.18,10.21c-2.16,3.06-6.13,4.33-9.7,3.15
			c-3.27-1.08-5.32-4.06-5.59-6.34c0.21,0.12,0.3,0.33,0.39,0.51c1.05,2.01,2.58,3.42,4.78,4.06c4.12,1.2,8.53-1.44,9.37-5.65
			c0.93-4.6-2.46-8.89-7.18-9.01C28.18,16.23,27.94,16.23,27.67,16.23z"/>
		<path fill="#4A7DB2" d="M83.3,21.58c0,2.61,0,5.23,0,7.84c0,0.54-0.09,0.63-0.63,0.72c-0.63,0.09-1.26,0.09-1.89,0
			c-0.39-0.06-0.57-0.24-0.57-0.63c0-5.29,0-10.54,0-15.83c0-0.39,0.15-0.57,0.51-0.66c0.69-0.12,1.38-0.12,2.07,0
			c0.39,0.06,0.54,0.27,0.54,0.66C83.27,16.32,83.3,18.94,83.3,21.58z"/>
	</g>
</g>
</svg>
