<?xml version="1.0" encoding="utf-8"?>
<!-- Generator: Adobe Illustrator 21.0.2, SVG Export Plug-In . SVG Version: 6.00 Build 0)  -->
<svg version="1.1" id="Layer_1" xmlns="http://www.w3.org/2000/svg" xmlns:xlink="http://www.w3.org/1999/xlink" x="0px" y="0px"
	 viewBox="0 0 80.7 80.7" style="enable-background:new 0 0 80.7 80.7;" xml:space="preserve">
<style type="text/css">
	.st0{fill:#E2E2E2;}
	.st1{fill:#497CB1;}
</style>
<circle class="st0" cx="40.4" cy="40.4" r="40.4"/>
<path class="st1" d="M25.99702,42.34763c-1.58382-1.38585-3.01917-2.96967-3.5636-5.09793
	c-0.14848-0.49495-0.19798-0.54444-0.69292-0.34646c-3.41512,1.7818-5.69187,4.45451-6.23631,8.31507
	c-0.8909,5.59288,3.36563,10.69081,8.9585,10.93829c2.22725,0.09899,4.30602-0.39596,6.3353-1.23736
	c0.34646-0.14848,0.64343-0.19798,0.98989-0.04949c3.01916,1.13837,5.84035,0.8414,8.36457-1.28686
	c0.29697-0.24747,0.39596-0.19798,0.59394,0.09899c1.18787,1.8313,2.02927,2.7222,3.81108,3.91006
	c-0.84141,0.59393-1.7818,0.98989-2.77169,1.33635c-3.31613,1.18787-6.53327,0.84141-9.60193-0.8909
	c-0.49495-0.29697-0.84141-0.29697-1.33635-0.09899c-5.19692,2.02927-10.24536,1.73231-14.84835-1.48484
	c-5.54338-3.86057-7.37468-11.13626-4.504-17.37257c1.88079-4.15754,4.99895-6.87973,9.35446-8.21609
	c0.49495-0.14848,0.69292-0.39596,0.79191-0.8909c1.08888-4.85046,3.81108-8.56255,8.1171-10.93829
	c4.65248-2.62321,9.50294-2.87068,14.4524-0.8909c2.12827,0.84141,3.95956,2.17776,5.59288,3.76158
	c0.34646,0.34646,0.29697,0.49495-0.09899,0.79191c-1.48483,1.13837-3.01917,2.22725-4.30602,3.6131
	c-0.29697,0.34646-0.44545,0.14848-0.64343-0.0495c-2.07877-2.17776-4.65248-3.41512-7.62215-3.76158
	c-5.54339-0.74242-11.48273,2.6727-13.36352,7.67165c-1.13837,3.11815-0.69292,6.18682,0.64343,9.15648
	C24.85865,40.31836,25.40309,41.30825,25.99702,42.34763z"/>
<path class="st1" d="M54.45636,17.79836c2.07877,0.49495,3.95956,0.98989,5.84035,1.48483
	c1.38585,0.34646,2.77169,0.74242,4.15754,1.03938c0.34646,0.09899,0.49494,0.14848,0.29697,0.59394
	c-1.33635,3.16765-2.62321,6.3353-3.95956,9.50294c0,0.0495-0.09899,0.09899-0.19798,0.24747
	c-0.24747-0.69292-0.49495-1.33635-0.74242-2.02927c-0.09899-0.29697-0.24747-0.44545-0.59393-0.34646
	c-4.05855,0.9404-8.01811,2.32624-11.38374,5.04844c-5.98883,4.85046-7.32518,12.5716-3.31613,19.25336
	c2.07877,3.46461,4.99894,5.93934,8.90901,7.2262c0.0495,0,0.14849,0.0495,0.19798,0.09899c0.0495,0,0.0495,0.0495,0.14849,0.14849
	c-2.32624-0.29697-4.504-0.98989-6.43429-2.17776c-4.65248-2.82118-7.12721-7.07771-7.91912-12.32413
	c-1.08888-6.83024,1.18787-12.5716,5.64237-17.62004c2.77169-3.11815,6.13732-5.4444,9.84941-7.27569
	c0.49495-0.24747,0.59393-0.44545,0.34646-0.9404C55.0008,19.13471,54.75333,18.54078,54.45636,17.79836z"/>
<path class="st1" d="M55.74322,32.05278c4.4545-1.28686,10.49284,0.44545,14.00694,5.04844
	c3.76158,4.94945,3.91006,11.73019,0.29697,16.82813c-3.56361,5.04844-10.09688,7.12721-15.98672,5.19692
	c-5.3949-1.7818-8.76052-6.68176-9.20598-10.44334c0.34646,0.19798,0.49495,0.54444,0.64343,0.8414
	c1.73231,3.31613,4.25653,5.64237,7.86963,6.68176c6.78075,1.97978,14.05644-2.37574,15.44229-9.30497
	c1.53432-7.57266-4.05855-14.65038-11.82919-14.84835C56.58463,32.05278,56.18867,32.05278,55.74322,32.05278z"/>
</svg>
